<svg width="66" height="32" viewBox="0 0 66 32" fill="none" xmlns="http://www.w3.org/2000/svg">
<path d="M16.0595 24.99C21.0522 24.99 25.0995 20.9606 25.0995 15.99C25.0995 11.0194 21.0522 6.98999 16.0595 6.98999C11.0669 6.98999 7.01953 11.0194 7.01953 15.99C7.01953 20.9606 11.0669 24.99 16.0595 24.99Z" stroke="white" stroke-width="2" stroke-miterlimit="10" stroke-linecap="round" stroke-linejoin="round"/>
<path d="M61.43 12.18V12.15H30.6C28.89 5.72999 23.04 1 16.06 1C7.74 1 1 7.72 1 16C1 24.28 7.74 31 16.06 31C23.04 31 28.89 26.26 30.6 19.85H53.31V25.62H59.15V19.85H61.42V19.82C63.42 19.65 64.99 18.02 64.99 16C65 13.98 63.43 12.34 61.43 12.18Z" stroke="white" stroke-width="2" stroke-miterlimit="10" stroke-linecap="round" stroke-linejoin="round"/>
</svg>
