<svg width="54" height="54" viewBox="0 0 54 54" fill="none" xmlns="http://www.w3.org/2000/svg">
<path d="M33.2202 35.99L31.6602 27.54C33.3602 25.96 34.3302 23.57 33.8802 20.93C33.3902 18.02 31.0702 15.63 28.2502 15.12C23.8302 14.33 19.9902 17.81 19.9902 22.21C19.9902 24.33 20.9002 26.22 22.3202 27.54L20.7602 35.99C20.3702 37.51 21.4802 39 23.0202 39H30.9602C32.5002 39 33.6202 37.51 33.2202 35.99Z" stroke="white" stroke-width="2" stroke-miterlimit="10" stroke-linecap="round"/>
<path d="M27 53C41.3594 53 53 41.3594 53 27C53 12.6406 41.3594 1 27 1C12.6406 1 1 12.6406 1 27C1 41.3594 12.6406 53 27 53Z" stroke="white" stroke-width="2" stroke-miterlimit="10" stroke-linecap="round"/>
</svg>
