<svg width="52" height="66" viewBox="0 0 52 66" fill="none" xmlns="http://www.w3.org/2000/svg">
<path d="M38.1613 64.9999H13.3871C6.54323 64.9999 1 59.4567 1 52.6128V29.9031C1 28.7677 1.92903 27.8386 3.06452 27.8386H48.4839C49.6194 27.8386 50.5484 28.7677 50.5484 29.9031V52.6128C50.5484 59.4567 45.0052 64.9999 38.1613 64.9999Z" stroke="white" stroke-width="2" stroke-miterlimit="10" stroke-linecap="round"/>
<path d="M42.2901 27.8387V19.5806V17.5161C42.2901 8.39097 34.8991 1 25.7739 1C16.6488 1 9.25781 8.39097 9.25781 17.5161V27.8387" stroke="white" stroke-width="2" stroke-miterlimit="10"/>
<path d="M31.9682 42.2902C31.9682 38.8735 29.1914 36.0967 25.7746 36.0967C22.3578 36.0967 19.5811 38.8735 19.5811 42.2902C19.5811 44.1173 20.3862 45.738 21.6456 46.8735V52.6128C21.6456 54.8941 23.4933 56.7418 25.7746 56.7418C28.0559 56.7418 29.9036 54.8941 29.9036 52.6128V46.8735C31.163 45.738 31.9682 44.1173 31.9682 42.2902Z" stroke="white" stroke-width="2" stroke-miterlimit="10" stroke-linecap="round"/>
</svg>
